<?xml version="1.0" encoding="utf-8"?>
<!-- Generator: Adobe Illustrator 14.0.0, SVG Export Plug-In . SVG Version: 6.00 Build 43363)  -->
<!DOCTYPE svg PUBLIC "-//W3C//DTD SVG 1.1//EN" "http://www.w3.org/Graphics/SVG/1.1/DTD/svg11.dtd">
<svg version="1.1" id="LAYER_x5F_1" xmlns="http://www.w3.org/2000/svg" xmlns:xlink="http://www.w3.org/1999/xlink" x="0px"
	 y="0px" width="595.28px" height="841.89px" viewBox="0 0 595.28 841.89" enable-background="new 0 0 595.28 841.89"
	 xml:space="preserve">
<g id="INSERT">
	<g id="SPLINE">
		<path fill="none" stroke="#000000" stroke-width="0.7087" stroke-linecap="round" stroke-linejoin="round" d="M552.897,520.072
			c-6.847,0-12.397-5.551-12.397-12.396l0,0V334.104l0,0c0-6.847,5.551-12.397,12.397-12.397l0,0h42.152l0,0v-74.387l0,0H-0.049l0,0
			v74.387l0,0h42.152l0,0c6.847,0,12.398,5.551,12.398,12.397l0,0v173.571l0,0c0,6.846-5.551,12.396-12.398,12.396l0,0H-0.049l0,0
			v74.389l0,0h173.57l0,0v-37.195l0,0c0-6.847,5.551-12.398,12.397-12.398l0,0h223.162l0,0c6.848,0,12.398,5.552,12.398,12.398l0,0
			v37.195l0,0h173.57l0,0v-74.389l0,0H552.897"/>
	</g>
</g>
<g id="INSERT_1_">
	<g id="LWPOLYLINE">
		<polyline fill="none" stroke="#000000" stroke-width="0.7087" stroke-linecap="round" stroke-linejoin="round" points="
			17.855,576.042 18.22,576.674 18.704,577.217 19.291,577.648 19.954,577.942 20.666,578.095 21.389,578.095 22.098,577.942 
			22.762,577.648 23.351,577.217 23.835,576.674 24.201,576.042 24.422,575.35 24.499,574.624 24.422,573.896 24.201,573.204 
			23.835,572.574 23.351,572.03 22.762,571.6 22.098,571.306 21.389,571.152 20.666,571.152 19.954,571.306 19.291,571.6 
			18.704,572.03 18.22,572.574 17.855,573.204 17.631,573.896 17.556,574.624 17.631,575.35 17.855,576.042 		"/>
	</g>
</g>
<g id="INSERT_2_">
	<g id="LWPOLYLINE_1_">
		<polyline fill="none" stroke="#000000" stroke-width="0.7087" stroke-linecap="round" stroke-linejoin="round" points="
			17.855,268.575 18.22,269.206 18.704,269.75 19.291,270.179 19.954,270.478 20.666,270.627 21.389,270.627 22.098,270.478 
			22.762,270.179 23.351,269.75 23.835,269.206 24.201,268.575 24.422,267.883 24.499,267.155 24.422,266.428 24.201,265.737 
			23.835,265.106 23.351,264.562 22.762,264.132 22.098,263.838 21.389,263.685 20.666,263.685 19.954,263.838 19.291,264.132 
			18.704,264.562 18.22,265.106 17.855,265.737 17.631,266.428 17.556,267.155 17.631,267.883 17.855,268.575 		"/>
	</g>
</g>
<g id="INSERT_3_">
	<g id="LWPOLYLINE_2_">
		<polyline fill="none" stroke="#000000" stroke-width="0.7087" stroke-linecap="round" stroke-linejoin="round" points="
			316.645,509.095 317.008,509.724 317.493,510.267 318.081,510.698 318.744,510.995 319.455,511.145 320.178,511.145 
			320.887,510.995 321.551,510.698 322.14,510.267 322.623,509.724 322.989,509.095 323.212,508.4 323.288,507.672 323.212,506.948 
			322.989,506.254 322.623,505.622 322.14,505.081 321.551,504.652 320.887,504.352 320.178,504.202 319.455,504.202 
			318.744,504.352 318.081,504.652 317.493,505.081 317.008,505.622 316.645,506.254 316.42,506.948 316.344,507.672 316.42,508.4 
			316.645,509.095 		"/>
	</g>
</g>
<g id="INSERT_4_">
	<g id="LWPOLYLINE_3_">
		<polyline fill="none" stroke="#000000" stroke-width="0.7087" stroke-linecap="round" stroke-linejoin="round" points="
			316.645,285.933 317.008,286.564 317.493,287.108 318.081,287.536 318.744,287.833 319.455,287.983 320.178,287.983 
			320.887,287.833 321.551,287.536 322.14,287.108 322.623,286.564 322.989,285.933 323.212,285.239 323.288,284.513 
			323.212,283.787 322.989,283.091 322.623,282.463 322.14,281.918 321.551,281.489 320.887,281.192 320.178,281.041 
			319.455,281.041 318.744,281.192 318.081,281.489 317.493,281.918 317.008,282.463 316.645,283.091 316.42,283.787 
			316.344,284.513 316.42,285.239 316.645,285.933 		"/>
	</g>
</g>
<g id="INSERT_5_">
	<g id="LWPOLYLINE_4_">
		<polyline fill="none" stroke="#000000" stroke-width="0.7087" stroke-linecap="round" stroke-linejoin="round" points="
			361.276,509.095 361.641,509.724 362.125,510.267 362.71,510.698 363.375,510.995 364.086,511.145 364.81,511.145 
			365.518,510.995 366.181,510.698 366.773,510.267 367.257,509.724 367.621,509.095 367.844,508.4 367.92,507.672 367.844,506.948 
			367.621,506.254 367.257,505.622 366.773,505.081 366.181,504.652 365.518,504.352 364.81,504.202 364.086,504.202 
			363.375,504.352 362.71,504.652 362.125,505.081 361.641,505.622 361.276,506.254 361.051,506.948 360.978,507.672 361.051,508.4 
			361.276,509.095 		"/>
	</g>
</g>
<g id="INSERT_6_">
	<g id="LWPOLYLINE_5_">
		<polyline fill="none" stroke="#000000" stroke-width="0.7087" stroke-linecap="round" stroke-linejoin="round" points="
			361.276,285.933 361.641,286.564 362.125,287.108 362.71,287.536 363.375,287.833 364.086,287.983 364.81,287.983 
			365.518,287.833 366.181,287.536 366.773,287.108 367.257,286.564 367.621,285.933 367.844,285.239 367.92,284.513 
			367.844,283.787 367.621,283.091 367.257,282.463 366.773,281.918 366.181,281.489 365.518,281.192 364.81,281.041 
			364.086,281.041 363.375,281.192 362.71,281.489 362.125,281.918 361.641,282.463 361.276,283.091 361.051,283.787 
			360.978,284.513 361.051,285.239 361.276,285.933 		"/>
	</g>
</g>
<g id="INSERT_7_">
	<g id="LWPOLYLINE_6_">
		<polyline fill="none" stroke="#000000" stroke-width="0.7087" stroke-linecap="round" stroke-linejoin="round" points="
			570.801,576.042 571.166,576.674 571.652,577.217 572.238,577.648 572.904,577.942 573.611,578.095 574.336,578.095 
			575.045,577.942 575.712,577.648 576.296,577.217 576.782,576.674 577.148,576.042 577.373,575.35 577.446,574.624 
			577.373,573.896 577.148,573.204 576.782,572.574 576.296,572.03 575.712,571.6 575.045,571.306 574.336,571.152 573.611,571.152 
			572.904,571.306 572.238,571.6 571.652,572.03 571.166,572.574 570.801,573.204 570.578,573.896 570.502,574.624 570.578,575.35 
			570.801,576.042 		"/>
	</g>
</g>
<g id="INSERT_8_">
	<g id="LWPOLYLINE_7_">
		<polyline fill="none" stroke="#000000" stroke-width="0.7087" stroke-linecap="round" stroke-linejoin="round" points="
			570.801,268.575 571.166,269.206 571.652,269.75 572.238,270.179 572.904,270.478 573.611,270.627 574.336,270.627 
			575.045,270.478 575.712,270.179 576.296,269.75 576.782,269.206 577.148,268.575 577.373,267.883 577.446,267.155 
			577.373,266.428 577.148,265.737 576.782,265.106 576.296,264.562 575.712,264.132 575.045,263.838 574.336,263.685 
			573.611,263.685 572.904,263.838 572.238,264.132 571.652,264.562 571.166,265.106 570.801,265.737 570.578,266.428 
			570.502,267.155 570.578,267.883 570.801,268.575 		"/>
	</g>
</g>
<g id="INSERT_12_">
	<g id="INSERT_9_">
		<g id="LWPOLYLINE_8_">
			<polyline fill="none" stroke="#000000" stroke-width="0.7087" stroke-linecap="round" stroke-linejoin="round" points="
				127.029,319.227 100.993,319.227 100.993,259.717 127.029,259.717 127.029,319.227 			"/>
		</g>
	</g>
	<g id="INSERT_10_">
		<g id="LWPOLYLINE_9_">
			<polyline fill="none" stroke="#000000" stroke-width="0.7087" stroke-linecap="round" stroke-linejoin="round" points="
				94.175,292.944 90.456,292.944 90.456,285.505 94.175,285.505 94.175,292.944 			"/>
		</g>
	</g>
	<g id="INSERT_11_">
		<g id="LWPOLYLINE_10_">
			<polyline fill="none" stroke="#000000" stroke-width="0.7087" stroke-linecap="round" stroke-linejoin="round" points="
				137.568,292.944 133.849,292.944 133.849,285.505 137.568,285.505 137.568,292.944 			"/>
		</g>
	</g>
</g>
<g id="INSERT_16_">
	<g id="INSERT_13_">
		<g id="LWPOLYLINE_11_">
			<polyline fill="none" stroke="#000000" stroke-width="0.7087" stroke-linecap="round" stroke-linejoin="round" points="
				126.909,450.645 100.874,450.645 100.874,391.135 126.909,391.135 126.909,450.645 			"/>
		</g>
	</g>
	<g id="INSERT_14_">
		<g id="LWPOLYLINE_12_">
			<polyline fill="none" stroke="#000000" stroke-width="0.7087" stroke-linecap="round" stroke-linejoin="round" points="
				94.056,424.609 90.336,424.609 90.336,417.17 94.056,417.17 94.056,424.609 			"/>
		</g>
	</g>
	<g id="INSERT_15_">
		<g id="LWPOLYLINE_13_">
			<polyline fill="none" stroke="#000000" stroke-width="0.7087" stroke-linecap="round" stroke-linejoin="round" points="
				137.447,424.609 133.728,424.609 133.728,417.17 137.447,417.17 137.447,424.609 			"/>
		</g>
	</g>
</g>
<g id="INSERT_20_">
	<g id="INSERT_17_">
		<g id="LWPOLYLINE_14_">
			<polyline fill="none" stroke="#000000" stroke-width="0.7087" stroke-linecap="round" stroke-linejoin="round" points="
				127.029,582.062 100.994,582.062 100.994,522.551 127.029,522.551 127.029,582.062 			"/>
		</g>
	</g>
	<g id="INSERT_18_">
		<g id="LWPOLYLINE_15_">
			<polyline fill="none" stroke="#000000" stroke-width="0.7087" stroke-linecap="round" stroke-linejoin="round" points="
				94.176,556.277 90.456,556.277 90.456,548.837 94.176,548.837 94.176,556.277 			"/>
		</g>
	</g>
	<g id="INSERT_19_">
		<g id="LWPOLYLINE_16_">
			<polyline fill="none" stroke="#000000" stroke-width="0.7087" stroke-linecap="round" stroke-linejoin="round" points="
				137.568,556.277 133.849,556.277 133.849,548.837 137.568,548.837 137.568,556.277 			"/>
		</g>
	</g>
</g>
<g id="INSERT_24_">
	<g id="INSERT_21_">
		<g id="LWPOLYLINE_17_">
			<polyline fill="none" stroke="#000000" stroke-width="0.7087" stroke-linecap="round" stroke-linejoin="round" points="
				494.007,319.227 467.972,319.227 467.972,259.717 494.007,259.717 494.007,319.227 			"/>
		</g>
	</g>
	<g id="INSERT_22_">
		<g id="LWPOLYLINE_18_">
			<polyline fill="none" stroke="#000000" stroke-width="0.7087" stroke-linecap="round" stroke-linejoin="round" points="
				461.153,292.944 457.434,292.944 457.434,285.505 461.153,285.505 461.153,292.944 			"/>
		</g>
	</g>
	<g id="INSERT_23_">
		<g id="LWPOLYLINE_19_">
			<polyline fill="none" stroke="#000000" stroke-width="0.7087" stroke-linecap="round" stroke-linejoin="round" points="
				504.546,292.944 500.827,292.944 500.827,285.505 504.546,285.505 504.546,292.944 			"/>
		</g>
	</g>
</g>
<g id="INSERT_28_">
	<g id="INSERT_25_">
		<g id="LWPOLYLINE_20_">
			<polyline fill="none" stroke="#000000" stroke-width="0.7087" stroke-linecap="round" stroke-linejoin="round" points="
				494.008,582.062 467.972,582.062 467.972,522.551 494.008,522.551 494.008,582.062 			"/>
		</g>
	</g>
	<g id="INSERT_26_">
		<g id="LWPOLYLINE_21_">
			<polyline fill="none" stroke="#000000" stroke-width="0.7087" stroke-linecap="round" stroke-linejoin="round" points="
				461.153,556.277 457.434,556.277 457.434,548.837 461.153,548.837 461.153,556.277 			"/>
		</g>
	</g>
	<g id="INSERT_27_">
		<g id="LWPOLYLINE_22_">
			<polyline fill="none" stroke="#000000" stroke-width="0.7087" stroke-linecap="round" stroke-linejoin="round" points="
				504.546,556.277 500.828,556.277 500.828,548.837 504.546,548.837 504.546,556.277 			"/>
		</g>
	</g>
</g>
<g id="INSERT_29_">
	<g id="SPLINE_1_">
		<path fill="none" stroke="#000000" stroke-width="0.7087" stroke-linecap="round" stroke-linejoin="round" d="M409.081,321.707
			H185.919l0,0c-6.847,0-12.397,5.551-12.397,12.397l0,0v123.979l0,0c0,6.846,5.551,12.396,12.397,12.396l0,0h223.162l0,0
			c6.848,0,12.398-5.551,12.398-12.396l0,0V334.104l0,0C421.479,327.257,415.928,321.707,409.081,321.707"/>
	</g>
</g>
</svg>
